HIERARCHY
ROOT mixamorig:Hips
{
	OFFSET -0.000008 104.274872 1.554316
	CHANNELS 6 Xposition Yposition Zposition Xrotation Yrotation Zrotation
	JOINT mixamorig:Spine
	{
		OFFSET -0.000005 10.181595 0.131519
		CHANNELS 6 Xposition Yposition Zposition Xrotation Yrotation Zrotation
		JOINT mixamorig:Spine1
		{
			OFFSET -0.000000 9.893959 -1.470707
			CHANNELS 6 Xposition Yposition Zposition Xrotation Yrotation Zrotation
			JOINT mixamorig:Spine2
			{
				OFFSET -0.000000 9.220757 -1.370641
				CHANNELS 6 Xposition Yposition Zposition Xrotation Yrotation Zrotation
				JOINT mixamorig:Neck
				{
					OFFSET 0.000001 16.740417 -2.049036
					CHANNELS 6 Xposition Yposition Zposition Xrotation Yrotation Zrotation
					JOINT mixamorig:Head
					{
						OFFSET 0.000000 9.617874 1.685006
						CHANNELS 6 Xposition Yposition Zposition Xrotation Yrotation Zrotation
						JOINT mixamorig:HeadTop_End
						{
							OFFSET 0.000002 22.037354 7.501101
							CHANNELS 6 Xposition Yposition Zposition Xrotation Yrotation Zrotation
							End Site
							{
								OFFSET 0.000168 2310.654297 -282.823242
							}
						}
					}
				}
				JOINT mixamorig:RightShoulder
				{
					OFFSET -4.569970 11.014908 -2.160885
					CHANNELS 6 Xposition Yposition Zposition Xrotation Yrotation Zrotation
					JOINT mixamorig:RightArm
					{
						OFFSET -10.592851 -0.524811 -2.232101
						CHANNELS 6 Xposition Yposition Zposition Xrotation Yrotation Zrotation
						JOINT mixamorig:RightForeArm
						{
							OFFSET -27.841511 0.000031 -0.000004
							CHANNELS 6 Xposition Yposition Zposition Xrotation Yrotation Zrotation
							JOINT mixamorig:RightHand
							{
								OFFSET -28.328831 -0.000015 0.000015
								CHANNELS 6 Xposition Yposition Zposition Xrotation Yrotation Zrotation
								JOINT mixamorig:RightHandThumb1
								{
									OFFSET -2.464806 -1.573990 2.681852
									CHANNELS 6 Xposition Yposition Zposition Xrotation Yrotation Zrotation
									JOINT mixamorig:RightHandThumb2
									{
										OFFSET -3.215179 -1.872803 1.924282
										CHANNELS 6 Xposition Yposition Zposition Xrotation Yrotation Zrotation
										JOINT mixamorig:RightHandThumb3
										{
											OFFSET -2.654831 -1.527969 1.512609
											CHANNELS 6 Xposition Yposition Zposition Xrotation Yrotation Zrotation
											JOINT mixamorig:RightHandThumb4
											{
												OFFSET -2.018814 -1.152008 1.108052
												CHANNELS 6 Xposition Yposition Zposition Xrotation Yrotation Zrotation
												End Site
												{
													OFFSET -188.809540 -114.533607 132.431396
												}
											}
										}
									}
								}
								JOINT mixamorig:RightHandIndex1
								{
									OFFSET -9.108284 -0.517868 2.259835
									CHANNELS 6 Xposition Yposition Zposition Xrotation Yrotation Zrotation
									JOINT mixamorig:RightHandIndex2
									{
										OFFSET -3.699989 0.000000 0.001215
										CHANNELS 6 Xposition Yposition Zposition Xrotation Yrotation Zrotation
										JOINT mixamorig:RightHandIndex3
										{
											OFFSET -2.850006 0.000031 -0.000522
											CHANNELS 6 Xposition Yposition Zposition Xrotation Yrotation Zrotation
											JOINT mixamorig:RightHandIndex4
											{
												OFFSET -2.772186 -0.000015 -0.000020
												CHANNELS 6 Xposition Yposition Zposition Xrotation Yrotation Zrotation
												End Site
												{
													OFFSET -277.218445 0.000000 -0.050231
												}
											}
										}
									}
								}
								JOINT mixamorig:RightHandMiddle1
								{
									OFFSET -9.532516 -0.000031 -0.000023
									CHANNELS 6 Xposition Yposition Zposition Xrotation Yrotation Zrotation
									JOINT mixamorig:RightHandMiddle2
									{
										OFFSET -3.700005 -0.000015 0.003713
										CHANNELS 6 Xposition Yposition Zposition Xrotation Yrotation Zrotation
										JOINT mixamorig:RightHandMiddle3
										{
											OFFSET -2.949974 0.000015 -0.002054
											CHANNELS 6 Xposition Yposition Zposition Xrotation Yrotation Zrotation
											JOINT mixamorig:RightHandMiddle4
											{
												OFFSET -2.946640 0.000000 -0.000156
												CHANNELS 6 Xposition Yposition Zposition Xrotation Yrotation Zrotation
												End Site
												{
													OFFSET -294.664337 0.000000 -0.113670
												}
											}
										}
									}
								}
								JOINT mixamorig:RightHandRing1
								{
									OFFSET -9.103600 -0.043076 -1.865134
									CHANNELS 6 Xposition Yposition Zposition Xrotation Yrotation Zrotation
									JOINT mixamorig:RightHandRing2
									{
										OFFSET -3.379288 0.000000 -0.001055
										CHANNELS 6 Xposition Yposition Zposition Xrotation Yrotation Zrotation
										JOINT mixamorig:RightHandRing3
										{
											OFFSET -2.889687 -0.000015 0.000379
											CHANNELS 6 Xposition Yposition Zposition Xrotation Yrotation Zrotation
											JOINT mixamorig:RightHandRing4
											{
												OFFSET -2.638809 -0.000015 0.000941
												CHANNELS 6 Xposition Yposition Zposition Xrotation Yrotation Zrotation
												End Site
												{
													OFFSET -263.880371 0.000000 0.516020
												}
											}
										}
									}
								}
								JOINT mixamorig:RightHandPinky1
								{
									OFFSET -8.076683 -0.486710 -3.806280
									CHANNELS 6 Xposition Yposition Zposition Xrotation Yrotation Zrotation
									JOINT mixamorig:RightHandPinky2
									{
										OFFSET -3.600014 -0.000015 -0.003747
										CHANNELS 6 Xposition Yposition Zposition Xrotation Yrotation Zrotation
										JOINT mixamorig:RightHandPinky3
										{
											OFFSET -2.099983 0.000000 -0.005739
											CHANNELS 6 Xposition Yposition Zposition Xrotation Yrotation Zrotation
											JOINT mixamorig:RightHandPinky4
											{
												OFFSET -2.115768 -0.000031 -0.003680
												CHANNELS 6 Xposition Yposition Zposition Xrotation Yrotation Zrotation
												End Site
												{
													OFFSET -211.577087 0.000000 -0.350686
												}
											}
										}
									}
								}
							}
						}
					}
				}
				JOINT mixamorig:LeftShoulder
				{
					OFFSET 4.570447 11.014725 -2.160855
					CHANNELS 6 Xposition Yposition Zposition Xrotation Yrotation Zrotation
					JOINT mixamorig:LeftArm
					{
						OFFSET 10.592371 -0.524597 -2.232119
						CHANNELS 6 Xposition Yposition Zposition Xrotation Yrotation Zrotation
						JOINT mixamorig:LeftForeArm
						{
							OFFSET 27.841532 -0.000031 0.000026
							CHANNELS 6 Xposition Yposition Zposition Xrotation Yrotation Zrotation
							JOINT mixamorig:LeftHand
							{
								OFFSET 28.328846 -0.000061 0.000022
								CHANNELS 6 Xposition Yposition Zposition Xrotation Yrotation Zrotation
								JOINT mixamorig:LeftHandThumb1
								{
									OFFSET 2.466141 -1.576172 2.681732
									CHANNELS 6 Xposition Yposition Zposition Xrotation Yrotation Zrotation
									JOINT mixamorig:LeftHandThumb2
									{
										OFFSET 3.217812 -1.872070 1.916482
										CHANNELS 6 Xposition Yposition Zposition Xrotation Yrotation Zrotation
										JOINT mixamorig:LeftHandThumb3
										{
											OFFSET 2.656029 -1.528778 1.514513
											CHANNELS 6 Xposition Yposition Zposition Xrotation Yrotation Zrotation
											JOINT mixamorig:LeftHandThumb4
											{
												OFFSET 2.020889 -1.154053 1.115139
												CHANNELS 6 Xposition Yposition Zposition Xrotation Yrotation Zrotation
												End Site
												{
													OFFSET 190.885437 -115.081749 130.048782
												}
											}
										}
									}
								}
								JOINT mixamorig:LeftHandIndex1
								{
									OFFSET 9.109314 -0.518021 2.259871
									CHANNELS 6 Xposition Yposition Zposition Xrotation Yrotation Zrotation
									JOINT mixamorig:LeftHandIndex2
									{
										OFFSET 3.699989 0.000000 -0.000322
										CHANNELS 6 Xposition Yposition Zposition Xrotation Yrotation Zrotation
										JOINT mixamorig:LeftHandIndex3
										{
											OFFSET 2.850006 0.000000 0.000352
											CHANNELS 6 Xposition Yposition Zposition Xrotation Yrotation Zrotation
											JOINT mixamorig:LeftHandIndex4
											{
												OFFSET 2.774864 -0.000031 -0.000027
												CHANNELS 6 Xposition Yposition Zposition Xrotation Yrotation Zrotation
												End Site
												{
													OFFSET 277.486267 0.000000 -0.009857
												}
											}
										}
									}
								}
								JOINT mixamorig:LeftHandMiddle1
								{
									OFFSET 9.533394 0.000061 0.000044
									CHANNELS 6 Xposition Yposition Zposition Xrotation Yrotation Zrotation
									JOINT mixamorig:LeftHandMiddle2
									{
										OFFSET 3.699989 -0.000015 -0.000231
										CHANNELS 6 Xposition Yposition Zposition Xrotation Yrotation Zrotation
										JOINT mixamorig:LeftHandMiddle3
										{
											OFFSET 2.949997 -0.000015 -0.000059
											CHANNELS 6 Xposition Yposition Zposition Xrotation Yrotation Zrotation
											JOINT mixamorig:LeftHandMiddle4
											{
												OFFSET 2.952896 0.000031 0.000063
												CHANNELS 6 Xposition Yposition Zposition Xrotation Yrotation Zrotation
												End Site
												{
													OFFSET 295.289337 0.000000 0.022810
												}
											}
										}
									}
								}
								JOINT mixamorig:LeftHandRing1
								{
									OFFSET 9.104523 -0.042999 -1.865074
									CHANNELS 6 Xposition Yposition Zposition Xrotation Yrotation Zrotation
									JOINT mixamorig:LeftHandRing2
									{
										OFFSET 3.150009 -0.000031 0.000043
										CHANNELS 6 Xposition Yposition Zposition Xrotation Yrotation Zrotation
										JOINT mixamorig:LeftHandRing3
										{
											OFFSET 2.949982 -0.000015 0.000040
											CHANNELS 6 Xposition Yposition Zposition Xrotation Yrotation Zrotation
											JOINT mixamorig:LeftHandRing4
											{
												OFFSET 2.644348 0.000000 0.000057
												CHANNELS 6 Xposition Yposition Zposition Xrotation Yrotation Zrotation
												End Site
												{
													OFFSET 264.434631 0.000000 0.012105
												}
											}
										}
									}
								}
								JOINT mixamorig:LeftHandPinky1
								{
									OFFSET 8.077789 -0.486847 -3.806259
									CHANNELS 6 Xposition Yposition Zposition Xrotation Yrotation Zrotation
									JOINT mixamorig:LeftHandPinky2
									{
										OFFSET 3.599953 0.000031 0.014727
										CHANNELS 6 Xposition Yposition Zposition Xrotation Yrotation Zrotation
										JOINT mixamorig:LeftHandPinky3
										{
											OFFSET 2.100021 0.000015 0.007705
											CHANNELS 6 Xposition Yposition Zposition Xrotation Yrotation Zrotation
											JOINT mixamorig:LeftHandPinky4
											{
												OFFSET 2.125504 0.000031 0.007517
												CHANNELS 6 Xposition Yposition Zposition Xrotation Yrotation Zrotation
												End Site
												{
													OFFSET 212.550781 0.000000 0.625752
												}
											}
										}
									}
								}
							}
						}
					}
				}
			}
		}
	}
	JOINT mixamorig:RightUpLeg
	{
		OFFSET -8.207787 -6.751648 -1.599560
		CHANNELS 6 Xposition Yposition Zposition Xrotation Yrotation Zrotation
		JOINT mixamorig:RightLeg
		{
			OFFSET -0.000002 -44.370117 0.345942
			CHANNELS 6 Xposition Yposition Zposition Xrotation Yrotation Zrotation
			JOINT mixamorig:RightFoot
			{
				OFFSET 0.000003 -44.423679 -3.043532
				CHANNELS 6 Xposition Yposition Zposition Xrotation Yrotation Zrotation
				JOINT mixamorig:RightToeBase
				{
					OFFSET -0.000002 -8.728671 10.710558
					CHANNELS 6 Xposition Yposition Zposition Xrotation Yrotation Zrotation
					JOINT mixamorig:RightToe_End
					{
						OFFSET -0.000001 -0.000679 9.278119
						CHANNELS 6 Xposition Yposition Zposition Xrotation Yrotation Zrotation
						End Site
						{
							OFFSET 0.000000 -0.067690 927.812134
						}
					}
				}
			}
		}
	}
	JOINT mixamorig:LeftUpLeg
	{
		OFFSET 8.207793 -6.751686 -1.599556
		CHANNELS 6 Xposition Yposition Zposition Xrotation Yrotation Zrotation
		JOINT mixamorig:LeftLeg
		{
			OFFSET -0.000004 -44.370014 0.346954
			CHANNELS 6 Xposition Yposition Zposition Xrotation Yrotation Zrotation
			JOINT mixamorig:LeftFoot
			{
				OFFSET -0.000001 -44.423672 -3.044401
				CHANNELS 6 Xposition Yposition Zposition Xrotation Yrotation Zrotation
				JOINT mixamorig:LeftToeBase
				{
					OFFSET -0.000002 -8.728669 10.710558
					CHANNELS 6 Xposition Yposition Zposition Xrotation Yrotation Zrotation
					JOINT mixamorig:LeftToe_End
					{
						OFFSET -0.000003 -0.000679 9.278133
						CHANNELS 6 Xposition Yposition Zposition Xrotation Yrotation Zrotation
						End Site
						{
							OFFSET 0.000000 -0.068021 927.813477
						}
					}
				}
			}
		}
	}
}
MOTION
Frames: 3
Frame Time: 0.033333
0.000006 104.270477 1.554256 0.000010 0.000003 -0.000113 -0.000005 10.181587 0.131522 0.000001 -0.000003 0.000084 -0.000000 9.893967 -1.470711 0.000001 0.000000 -0.000000 -0.000000 9.220802 -1.370642 0.000000 -0.000000 -0.000000 0.000001 16.740433 -2.049030 0.000000 -0.000000 -0.000000 0.000000 9.617859 1.685014 0.000000 0.000000 0.000000 0.000002 22.037384 7.501101 0.000000 -0.000000 0.000000 -4.569968 11.014880 -2.160881 0.000008 0.000001 -0.000038 -10.592876 -0.524758 -2.231910 74.032420 27.914850 -21.228006 -27.841501 0.000006 0.000579 -40.949607 107.515114 53.985962 -28.328812 0.000020 0.000030 -0.000321 -0.000043 0.000006 -2.464430 -1.573964 2.682378 -23.863049 -148.205898 34.817241 -3.215245 -1.872492 1.924617 149.217517 34.195349 29.811419 -2.654956 -1.527879 1.513068 147.153284 27.734830 -28.273278 -2.018834 -1.152005 1.108058 -0.000003 -0.000001 0.000002 -9.108394 -0.517574 2.260190 112.004700 16.176420 -23.865892 -3.700064 0.000299 0.001569 108.434833 12.614490 -17.404485 -2.850088 0.000367 -0.000212 108.213084 10.380101 -14.306273 -2.772179 -0.000015 -0.000020 -0.000000 -0.000001 0.000000 -9.532593 0.000266 0.000289 102.363027 17.546122 -21.895083 -3.700063 0.000335 0.004021 102.762525 11.421078 -14.153213 -2.950062 0.000340 -0.001773 104.916699 11.056183 -14.347082 -2.946631 0.000001 -0.000153 0.000001 -0.000002 -0.000000 -9.103712 -0.042795 -1.864818 98.433674 22.118144 -25.478100 -3.379333 0.000296 -0.000766 102.608798 11.564799 -14.432395 -2.889783 0.000339 0.000705 108.197812 8.473453 -11.750173 -2.638801 -0.000014 0.000946 -0.000000 -0.000002 -0.000000 -8.076771 -0.486438 -3.806010 82.926358 27.151737 -23.943570 -3.600058 0.000232 -0.003523 84.862252 14.724235 -13.121625 -2.100027 0.000311 -0.005477 89.807965 8.494123 -8.238578 -2.115778 -0.000052 -0.003678 0.000000 -0.000001 -0.000002 4.570446 11.014691 -2.160851 -0.000018 0.000010 -0.000021 10.592481 -0.524554 -2.232366 41.557740 -60.245349 24.831957 27.841778 -0.000044 -0.000121 31.858509 -104.818248 40.683001 28.328848 -0.000028 0.000015 0.000020 -0.000088 -0.000000 2.466113 -1.576174 2.681887 19.444893 121.792054 -74.154121 3.217789 -1.872044 1.916545 24.659105 134.673736 -86.585229 2.655936 -1.528830 1.514632 172.844398 33.520714 125.586565 2.020891 -1.154056 1.115152 0.000001 0.000007 0.000002 9.109431 -0.517781 2.259816 134.399149 -18.343728 41.993212 3.700052 0.000191 -0.000444 101.982436 -17.047432 20.986388 2.850033 0.000211 0.000204 89.775979 -9.552588 9.514232 2.774886 -0.000017 -0.000019 -0.000001 -0.000000 0.000001 9.533484 0.000336 -0.000046 128.184701 -12.375945 25.147853 3.700047 0.000229 -0.000362 104.367046 -10.574704 13.595942 2.950043 0.000188 -0.000211 92.311742 -8.113670 8.449537 2.952868 -0.000014 0.000080 -0.000001 -0.000002 -0.000001 9.104616 -0.042747 -1.865176 125.474851 -13.180572 25.277046 3.150033 0.000254 -0.000085 104.659583 -4.823441 6.247163 2.950001 0.000231 -0.000093 92.205143 -2.081985 2.165274 2.644328 0.000030 0.000056 -0.000003 0.000001 -0.000001 8.077875 -0.486606 -3.806342 127.204897 -15.177479 31.218817 3.599934 0.000329 0.014559 111.476030 4.547348 -6.104127 2.099918 0.000308 0.007528 106.310050 11.678012 -15.128509 2.125489 0.000000 0.007510 0.000002 -0.000004 0.000003 -8.207786 -6.751667 -1.599560 -0.077001 -0.000003 0.000080 -0.000002 -44.370110 0.345938 0.153719 -0.000000 -0.000000 0.000000 -44.423679 -3.043532 -0.076700 0.000000 -0.000002 -0.000006 -8.728667 10.710559 -0.000009 -0.000000 -0.000000 -0.000001 -0.000679 9.278123 0.000000 -0.000000 -0.000000 8.207792 -6.751710 -1.599556 -0.074518 -0.000003 0.000081 -0.000002 -44.370014 0.346960 0.148822 0.000002 0.000000 -0.000001 -44.423664 -3.044403 -0.074314 0.000000 -0.000002 -0.000004 -8.728671 10.710558 0.000007 -0.000000 -0.000000 0.000000 -0.000680 9.278137 -0.000000 0.000000 -0.000001 
0.000006 104.270477 1.554256 0.000010 0.000003 -0.000113 -0.000005 10.181587 0.131522 0.000001 -0.000003 0.000084 -0.000000 9.893967 -1.470711 0.000001 0.000000 -0.000000 -0.000000 9.220802 -1.370642 0.000000 -0.000000 -0.000000 0.000001 16.740433 -2.049030 0.000000 -0.000000 -0.000000 0.000000 9.617859 1.685014 0.000000 0.000000 0.000000 0.000002 22.037384 7.501101 0.000000 -0.000000 0.000000 -4.569968 11.014880 -2.160881 0.000008 0.000001 -0.000038 -10.592865 -0.524780 -2.231882 74.351042 35.667897 -27.422455 -27.841503 0.000015 0.000561 -41.107780 104.831321 51.947581 -28.328817 0.000020 0.000030 -0.000324 -0.000045 0.000006 -2.464420 -1.573940 2.682374 -27.039607 -148.829276 29.574583 -3.215248 -1.872524 1.924630 149.431712 33.993899 27.777165 -2.654967 -1.527863 1.513075 146.623316 27.740071 -28.963243 -2.018842 -1.152035 1.108071 -0.000005 0.000000 0.000005 -9.108388 -0.517559 2.260185 111.207016 16.398292 -23.838001 -3.700054 0.000306 0.001564 108.194547 13.027505 -17.892910 -2.850103 0.000374 -0.000184 108.214812 10.848583 -14.949071 -2.772154 -0.000015 -0.000018 -0.000000 0.000001 -0.000001 -9.532602 0.000253 0.000273 101.803649 17.794782 -21.985317 -3.700057 0.000321 0.004012 102.527075 11.690098 -14.427501 -2.950052 0.000339 -0.001758 105.094044 11.254244 -14.649473 -2.946640 0.000000 -0.000158 -0.000001 -0.000004 0.000000 -9.103708 -0.042778 -1.864852 97.806355 22.107104 -25.194367 -3.379332 0.000295 -0.000747 102.124155 11.713397 -14.492195 -2.889758 0.000343 0.000694 108.283442 8.626720 -11.979663 -2.638815 -0.000012 0.000940 -0.000000 0.000000 0.000002 -8.076777 -0.486427 -3.806013 82.622893 27.406390 -24.046139 -3.600073 0.000256 -0.003522 84.428631 15.229029 -13.480523 -2.100039 0.000306 -0.005498 89.470506 8.663082 -8.357289 -2.115791 -0.000053 -0.003675 0.000004 0.000001 -0.000006 4.570446 11.014691 -2.160851 -0.000018 0.000010 -0.000021 10.592482 -0.524566 -2.232360 42.783356 -59.842600 25.409670 27.841810 -0.000024 -0.000151 6.106096 -103.426023 7.730954 28.328829 -0.000031 0.000020 0.000021 -0.000089 0.000001 2.466010 -1.576170 2.681902 -32.397845 145.235216 -17.622062 3.217590 -1.872048 1.916559 -33.066476 145.772752 -12.908345 2.655787 -1.528805 1.514638 143.163675 27.140088 175.162619 2.020900 -1.154083 1.115152 0.000002 0.000001 -0.000004 9.109376 -0.517798 2.259724 101.837663 -10.927763 13.420281 3.700039 0.000141 -0.000460 83.356851 -16.323303 14.568519 2.850049 0.000153 0.000217 69.927122 -14.227666 9.974065 2.774873 -0.000013 -0.000025 -0.000002 0.000000 0.000003 9.533435 0.000303 -0.000097 98.330907 -7.446923 8.603447 3.700067 0.000155 -0.000369 85.662716 -18.809373 17.456090 2.950076 0.000123 -0.000179 75.454903 -23.350499 18.168308 2.952860 -0.000025 0.000065 0.000001 0.000000 0.000002 9.104572 -0.042766 -1.865216 102.407813 -9.000256 11.185310 3.150057 0.000159 -0.000081 76.792008 -14.478903 11.498412 2.950022 0.000086 -0.000041 65.629437 -20.928461 13.584480 2.644320 0.000017 0.000045 -0.000004 0.000003 -0.000004 8.077843 -0.486609 -3.806400 105.846970 -13.189490 18.145941 3.599977 0.000233 0.014540 89.165053 -7.547312 7.906825 2.100024 0.000205 0.007518 85.088659 -4.927928 4.926859 2.125509 0.000001 0.007499 0.000001 -0.000004 -0.000002 -8.207786 -6.751667 -1.599560 -0.077001 -0.000003 0.000080 -0.000002 -44.370110 0.345938 0.153719 -0.000000 -0.000000 0.000000 -44.423679 -3.043532 -0.076700 0.000000 -0.000002 -0.000006 -8.728667 10.710559 -0.000009 -0.000000 -0.000000 -0.000001 -0.000679 9.278123 0.000000 -0.000000 -0.000000 8.207792 -6.751710 -1.599556 -0.074518 -0.000003 0.000081 -0.000002 -44.370014 0.346960 0.148822 0.000002 0.000000 -0.000001 -44.423664 -3.044403 -0.074314 0.000000 -0.000002 -0.000004 -8.728671 10.710558 0.000007 -0.000000 -0.000000 0.000000 -0.000680 9.278137 -0.000000 0.000000 -0.000001 
0.000006 104.270477 1.554256 0.000010 0.000003 -0.000113 -0.000005 10.181587 0.131522 0.000001 -0.000003 0.000084 -0.000000 9.893967 -1.470711 0.000001 0.000000 -0.000000 -0.000000 9.220802 -1.370642 0.000000 -0.000000 -0.000000 0.000001 16.740433 -2.049030 0.000000 -0.000000 -0.000000 0.000000 9.617859 1.685014 0.000000 0.000000 0.000000 0.000002 22.037384 7.501101 0.000000 -0.000000 0.000000 -4.569968 11.014880 -2.160881 0.000008 0.000001 -0.000038 -10.592868 -0.524788 -2.231875 74.899178 35.980197 -27.934354 -27.841515 0.000006 0.000566 -42.111630 104.092192 52.539294 -28.328838 0.000020 0.000030 -0.000322 -0.000043 0.000008 -2.464418 -1.573955 2.682374 -26.831748 -148.903971 29.994680 -3.215226 -1.872503 1.924613 148.487821 34.138699 31.251472 -2.654953 -1.527828 1.513050 147.243961 27.717391 -28.337065 -2.018823 -1.151989 1.108064 0.000003 -0.000001 0.000007 -9.108384 -0.517559 2.260197 111.075357 16.118683 -23.382413 -3.700078 0.000304 0.001567 108.798049 12.870149 -17.872336 -2.850093 0.000367 -0.000185 108.844604 10.644743 -14.838787 -2.772169 0.000000 -0.000017 -0.000000 -0.000000 -0.000001 -9.532593 0.000256 0.000279 101.356428 16.959537 -20.805393 -3.700062 0.000334 0.004015 102.732110 11.249613 -13.932457 -2.950063 0.000344 -0.001755 104.777363 11.072377 -14.332283 -2.946624 0.000014 -0.000158 0.000000 -0.000002 -0.000000 -9.103709 -0.042781 -1.864841 97.596081 21.090726 -23.955948 -3.379356 0.000307 -0.000771 102.521256 10.997988 -13.707182 -2.889743 0.000339 0.000688 108.126273 8.353719 -11.570361 -2.638801 -0.000027 0.000934 0.000000 0.000002 -0.000001 -8.076766 -0.486416 -3.806014 82.322856 26.399125 -23.032050 -3.600068 0.000260 -0.003514 85.179596 14.179346 -12.694103 -2.100019 0.000308 -0.005474 89.933176 8.079854 -7.843975 -2.115779 -0.000028 -0.003679 -0.000002 0.000000 -0.000002 4.570446 11.014691 -2.160851 -0.000018 0.000010 -0.000021 10.592478 -0.524548 -2.232359 43.724815 -58.531484 25.344230 27.841820 0.000003 -0.000132 0.152171 -103.542000 0.193275 28.328844 -0.000028 0.000020 0.000019 -0.000088 -0.000002 2.465897 -1.576149 2.681869 -51.749925 148.429395 18.871977 3.217609 -1.872055 1.916549 -28.500723 138.126342 -17.951532 2.655917 -1.528841 1.514616 177.044063 44.310712 127.336351 2.020906 -1.154070 1.115154 -0.000000 -0.000000 0.000003 9.109358 -0.517812 2.259731 90.478621 -10.326239 10.400654 3.700031 0.000068 -0.000445 52.957049 -13.519408 6.766752 2.850023 0.000022 0.000285 26.167628 -16.197312 3.787889 2.774879 -0.000041 -0.000026 0.000003 0.000001 0.000000 9.533449 0.000237 -0.000097 94.026139 -12.080996 12.944877 3.700050 0.000077 -0.000331 54.834135 -15.587489 8.120759 2.950023 -0.000005 -0.000137 34.604505 -16.352316 5.126458 2.952881 -0.000019 0.000065 0.000001 0.000000 0.000000 9.104594 -0.042805 -1.865207 101.953721 -14.331059 17.637348 3.150029 0.000109 -0.000086 60.076985 -10.439991 6.049082 2.949993 0.000051 -0.000032 36.034043 -8.566136 2.791374 2.644318 0.000027 0.000054 -0.000000 0.000000 0.000003 8.077918 -0.486604 -3.806309 140.212268 -16.879177 46.199143 3.600080 0.000266 0.014682 138.685871 -14.068541 37.625204 2.100089 0.000299 0.007612 125.934878 -12.558209 25.298756 2.125507 0.000001 0.007516 -0.000001 0.000001 0.000002 -8.207786 -6.751667 -1.599560 -0.077001 -0.000003 0.000080 -0.000002 -44.370110 0.345938 0.153719 -0.000000 -0.000000 0.000000 -44.423679 -3.043532 -0.076700 0.000000 -0.000002 -0.000006 -8.728667 10.710559 -0.000009 -0.000000 -0.000000 -0.000001 -0.000679 9.278123 0.000000 -0.000000 -0.000000 8.207792 -6.751710 -1.599556 -0.074518 -0.000003 0.000081 -0.000002 -44.370014 0.346960 0.148822 0.000002 0.000000 -0.000001 -44.423664 -3.044403 -0.074314 0.000000 -0.000002 -0.000004 -8.728671 10.710558 0.000007 -0.000000 -0.000000 0.000000 -0.000680 9.278137 -0.000000 0.000000 -0.000001 
